Coordinates
version=1
nRows=14
nColumns=46
inDegrees=yes

Units are S.I. units (second, meters, Newtons, ...)
Angles are in degrees.

endheader
time	pelvis_tilt	pelvis_list	pelvis_rotation	pelvis_tx	pelvis_ty	pelvis_tz	bb_angle	bb_tx	bb_ty	bb_tz	hip_flexion_r	hip_adduction_r	hip_rotation_r	knee_angle_r	knee_angle_r_beta	ankle_angle_r	subtalar_angle_r	mtp_angle_r	crank_angle_r	hip_flexion_l	hip_adduction_l	hip_rotation_l	knee_angle_l	knee_angle_l_beta	ankle_angle_l	subtalar_angle_l	mtp_angle_l	crank_angle_l	lumbar_extension	lumbar_bending	lumbar_rotation	arm_flex_r	arm_add_r	arm_rot_r	elbow_flex_r	pro_sup_r	wrist_flex_r	wrist_dev_r	arm_flex_l	arm_add_l	arm_rot_l	elbow_flex_l	pro_sup_l	wrist_flex_l	wrist_dev_l
      0.00000000	    -23.10324021	     -7.19484414	     -5.75009899	      0.10110568	      1.10948276	     -0.23409383	      0.00000000	      0.50000000	      0.00000000	      0.25000000	     90.75325909	      4.40128035	     -0.27277746	     95.48649760	      1.66655377	     25.73654972	     -6.41853779	      0.00000000	      0.00000000	     35.85592493	    -13.40562708	     -4.21592820	     21.77169137	      0.37998770	     10.85405131	      5.44922318	      0.00000000	      0.00000000	    -45.62527897	      4.02387174	      8.16801556	     89.60281753	     -4.48803878	     42.51783406	     31.93210466	     27.43310380	      0.00000000	      0.00000000	     89.67938881	     -8.66073324	     40.29103876	     26.97654372	     26.18215474	      0.00000000	      0.00000000
      0.00500000	    -23.07490172	     -7.18428535	     -5.70594713	      0.10106724	      1.10954331	     -0.23423413	      0.00000000	      0.50000000	      0.00000000	      0.25000000	     90.71624335	      4.31126554	     -0.25944969	     95.47791085	      1.66640391	     25.77481841	     -6.28789469	      0.00000000	      0.00000000	     35.80559748	    -13.36233673	     -4.15436175	     21.70643257	      0.37884872	     10.82159872	      5.44490025	      0.00000000	      0.00000000	    -45.64921066	      4.04391124	      8.14807968	     89.60738102	     -4.70436110	     42.86889110	     31.73342237	     29.44396064	      0.00000000	      0.00000000	     89.68207437	     -8.78934376	     40.71287448	     26.76554190	     27.91082317	      0.00000000	      0.00000000
      0.01000000	    -23.03787086	     -7.13662975	     -5.77332530	      0.10101630	      1.10960014	     -0.23411885	      0.00000000	      0.50000000	      0.00000000	      0.25000000	     90.68998323	      4.38658130	     -0.19658532	     95.47793073	      1.66640425	     25.81117417	     -6.23920677	      0.00000000	      0.00000000	     35.73853546	    -13.38406760	     -4.36408029	     21.69042072	      0.37856926	     10.87962310	      5.66507796	      0.00000000	      0.00000000	    -45.71377051	      3.94444045	      8.12908424	     89.60301283	     -4.57451398	     42.34405513	     31.68906501	     29.82214127	      0.00000000	      0.00000000	     89.67768762	     -8.78441783	     40.15262685	     26.89019547	     28.24444353	      0.00000000	      0.00000000
      0.01500000	    -22.54902947	     -7.06708486	     -5.68276877	      0.10146973	      1.11102661	     -0.23479952	      0.00000000	      0.50000000	      0.00000000	      0.25000000	     90.08343246	      4.34075498	     -0.15259105	     95.47086272	      1.66628089	     25.79150693	     -6.60896979	      0.00000000	      0.00000000	     34.79955197	    -13.25502101	     -4.53169659	     21.06176795	      0.36759720	     10.85567329	      5.61856714	      0.00000000	      0.00000000	    -46.37013147	      3.84622065	      8.25358182	     89.60373756	     -4.76336471	     41.54083035	     32.05088131	     30.49531148	      0.00000000	      0.00000000	     89.67231325	     -9.24487564	     39.91873426	     28.03474339	     29.10731315	      0.00000000	      0.00000000
      0.02000000	    -22.45165400	     -6.71924708	     -5.52986999	      0.10188993	      1.11146541	     -0.23558079	      0.00000000	      0.50000000	      0.00000000	      0.25000000	     90.00840745	      3.92802386	      0.19312301	     95.53473754	      1.66739572	     25.93866266	     -5.96649305	      0.00000000	      0.00000000	     33.81328941	    -12.39967598	     -4.03639985	     19.32445879	      0.33727543	      9.98835689	      4.51238081	      0.00000000	      0.00000000	    -46.32903716	      3.68102732	      7.82014657	     89.61564665	     -4.27903698	     41.44027098	     31.21546311	     29.97098506	      0.00000000	      0.00000000	     89.69195519	     -9.67962481	     43.20784724	     27.87750212	     28.48834160	      0.00000000	      0.00000000
      0.02500000	    -22.40918525	     -6.82472527	     -5.50713442	      0.10167917	      1.11152534	     -0.23551188	      0.00000000	      0.50000000	      0.00000000	      0.25000000	     89.96163639	      3.93711605	      0.10327324	     95.53849060	      1.66746122	     25.95268473	     -5.93290303	      0.00000000	      0.00000000	     33.84886882	    -12.37605625	     -3.30179054	     19.45149751	      0.33949268	      9.91075740	      3.63977861	      0.00000000	      0.00000000	    -46.38202973	      3.71167024	      7.90572598	     89.61403982	     -4.20819420	     41.06192083	     31.09371103	     30.33565762	      0.00000000	      0.00000000	     89.69184624	     -8.84980986	     41.76829398	     27.27944094	     28.55281084	      0.00000000	      0.00000000
      0.03000000	    -22.26199026	     -6.93188824	     -5.55137814	      0.10166482	      1.11197118	     -0.23526394	      0.00000000	      0.50000000	      0.00000000	      0.25000000	     89.75912899	      4.04550954	     -0.01312119	     95.48843666	      1.66658762	     25.93977383	     -6.06014973	      0.00000000	      0.00000000	     33.49858974	    -12.41342658	     -2.77863858	     19.09859952	      0.33333344	      9.71972953	      3.04945201	      0.00000000	      0.00000000	    -46.65882601	      3.71436774	      8.06862827	     89.60995577	     -4.26257053	     40.32851687	     31.42171778	     30.92940686	      0.00000000	      0.00000000	     89.68348976	     -8.83691681	     40.68644111	     27.81036880	     29.16683884	      0.00000000	      0.00000000
      0.03500000	    -22.50030902	     -6.93550207	     -5.57298878	      0.10141933	      1.11151004	     -0.23505068	      0.00000000	      0.50000000	      0.00000000	      0.25000000	     90.03555999	      4.08464492	     -0.00706972	     95.47528883	      1.66635814	     25.88664492	     -6.08309404	      0.00000000	      0.00000000	     33.74074968	    -12.37861100	     -2.37472179	     19.04878966	      0.33246410	      9.58719634	      2.52820987	      0.00000000	      0.00000000	    -46.28884817	      3.73424994	      8.06836091	     89.61573055	     -4.21452051	     40.98315560	     30.89782947	     30.94629862	      0.00000000	      0.00000000	     89.69124920	     -8.53224453	     40.91186795	     26.99014216	     28.89060983	      0.00000000	      0.00000000
      0.04000000	    -22.54558423	     -6.91960145	     -5.69089251	      0.10138539	      1.11140923	     -0.23467819	      0.00000000	      0.50000000	      0.00000000	      0.25000000	     90.09235891	      4.22578069	      0.01327965	     95.46192759	      1.66612495	     25.90051618	     -6.05558662	      0.00000000	      0.00000000	     33.77842696	    -12.48479661	     -2.65264174	     19.09149801	      0.33320950	      9.69801427	      2.81837510	      0.00000000	      0.00000000	    -46.22152375	      3.62315357	      8.11734549	     89.61296126	     -4.14056845	     40.81444489	     30.67824890	     31.26408691	      0.00000000	      0.00000000	     89.68892353	     -8.43403249	     40.55125856	     26.82153369	     29.10936662	      0.00000000	      0.00000000
      0.04500000	    -22.59346670	     -6.91857155	     -5.82941970	      0.10131492	      1.11128067	     -0.23421762	      0.00000000	      0.50000000	      0.00000000	      0.25000000	     90.15319586	      4.40149295	      0.02781710	     95.44295407	      1.66579380	     25.89240099	     -6.02853155	      0.00000000	      0.00000000	     33.82367632	    -12.61453209	     -2.89670866	     19.14391096	      0.33412428	      9.78135036	      3.04715026	      0.00000000	      0.00000000	    -46.16540643	      3.51752596	      8.21327435	     89.61320373	     -4.05939782	     40.73146803	     30.57844773	     31.56325721	      0.00000000	      0.00000000	     89.68792458	     -8.37119198	     40.42480663	     26.76599860	     29.36934103	      0.00000000	      0.00000000
      0.05000000	    -22.75525533	     -6.95783037	     -5.95434282	      0.10132466	      1.11108837	     -0.23388603	      0.00000000	      0.50000000	      0.00000000	      0.25000000	     90.30086163	      4.54314817	     -0.02405493	     95.38755890	      1.66482697	     25.83320229	     -6.14388088	      0.00000000	      0.00000000	     33.98616786	    -12.76269564	     -3.02109066	     19.18804983	      0.33489465	      9.85272942	      3.17084154	      0.00000000	      0.00000000	    -46.03421895	      3.59210987	      8.22432950	     89.61355746	     -3.91958487	     41.26823059	     31.15994040	     28.55293371	      0.00000000	      0.00000000	     89.68815303	     -8.94451461	     42.21395003	     27.60304569	     24.99323117	      0.00000000	      0.00000000
      0.05500000	    -22.90912674	     -6.92818424	     -5.97165945	      0.10107062	      1.11082998	     -0.23372251	      0.00000000	      0.50000000	      0.00000000	      0.25000000	     90.46890659	      4.56062349	      0.01147510	     95.35180682	      1.66420298	     25.85406316	     -6.12473498	      0.00000000	      0.00000000	     34.34600966	    -12.95092743	     -4.03879326	     19.51051470	      0.34052272	     10.11098893	      4.39947871	      0.00000000	      0.00000000	    -45.83973788	      3.56678503	      8.15848924	     89.61178612	     -3.53990646	     40.52474588	     30.60079768	     29.72518378	      0.00000000	      0.00000000	     89.68302649	     -8.55428828	     40.75266532	     26.98268492	     26.85103505	      0.00000000	      0.00000000
      0.06000000	    -22.89570773	     -7.00207168	     -6.08040666	      0.10099923	      1.11086243	     -0.23328501	      0.00000000	      0.50000000	      0.00000000	      0.25000000	     90.43623764	      4.72713375	     -0.03937924	     95.30546827	      1.66339422	     25.89893687	     -6.00757005	      0.00000000	      0.00000000	     34.30563924	    -13.12476012	     -4.15610461	     19.50742520	      0.34046880	     10.15785617	      4.59845074	      0.00000000	      0.00000000	    -45.90001368	      3.54326916	      8.31649653	     89.60989192	     -3.57048746	     40.33205457	     30.68819891	     29.91438576	      0.00000000	      0.00000000	     89.68008360	     -8.62203362	     40.49235411	     27.20276554	     27.08680622	      0.00000000	      0.00000000
      0.06500000	    -23.01781367	     -7.09347585	     -6.17693032	      0.10065050	      1.11048532	     -0.23250677	      0.00000000	      0.50000000	      0.00000000	      0.25000000	     90.59388150	      4.94683613	     -0.10992828	     95.28258055	      1.66299475	     25.80130465	     -6.25233341	      0.00000000	      0.00000000	     34.15634818	    -13.12774745	     -3.67855528	     18.93721259	      0.33051671	      9.84457901	      3.58276576	      0.00000000	      0.00000000	    -45.67530811	      3.50224872	      8.48196205	     89.60089216	     -4.35722857	     41.72279319	     30.94921062	     30.38653083	      0.00000000	      0.00000000	     89.68928302	     -8.44115144	     40.82145948	     26.64147931	     27.34578997	      0.00000000	      0.00000000
